<?xml version="1.0" encoding="UTF-8"?>
<svg width="30.568mm" height="36.623mm" version="1.1" viewBox="0 0 30.568 36.623" xmlns="http://www.w3.org/2000/svg">
 <defs>
  <linearGradient id="linear-gradient-0" x1="210.33" x2="398.68" y1="362.14" y2="173.78" gradientUnits="userSpaceOnUse">
   <stop offset=".1"/>
   <stop stop-opacity="0" offset=".8"/>
  </linearGradient>
 </defs>
 <g transform="translate(-78.052 -132.43)">
  <path d="m105.35 167.26 2e-4 -13.996c0-7.1591-12.021-8.548-12.021-16.026l4e-4 -4.8067" fill="none" stroke="#282828" stroke-width="2.365"/>
  <path d="m93.335 154.55v-22.115" fill="none" stroke="#282828" stroke-width="2.365"/>
  <path d="m105.35 167.26 2e-4 -13.996c0-7.1591-12.021-8.548-12.021-16.026l4e-4 -4.8067" fill="none" stroke="#ffcd40" stroke-width="1.217"/>
  <path d="m93.335 154.55v-22.115" fill="none" stroke="#ffcd40" stroke-width="1.217"/>
  <path d="m105.35 167.26 2e-4 -13.996c0-7.1591-12.021-8.548-12.021-16.026l4e-4 -4.8067" fill="none" stroke="#ec5656" stroke-dasharray="0.565, 1.13" stroke-linecap="round" stroke-width=".565"/>
  <circle cx="93.335" cy="161.59" r="7.1725" fill="#ffcd40" fill-rule="evenodd" stop-color="#000000" stroke="#282828" stroke-width=".574" style="font-variation-settings:normal"/>
  <circle cx="105.35" cy="165.79" r="2.9794" fill="#ec5656" fill-rule="evenodd" stop-color="#000000" stroke="#282828" stroke-width=".574" style="font-variation-settings:normal"/>
  <g transform="matrix(.35435 0 0 .35435 91.973 43.536)" stroke="#fff" stroke-width="2.0655">
   <g fill="none" stroke="#fff" stroke-linecap="round" stroke-width="2.0655">
    <path d="m34.885 342.12 5.7567 5.7567"/>
    <path d="m40.642 342.12-5.7567 5.7567"/>
   </g>
  </g>
  <g id="Foreground" transform="matrix(.037297 0 0 .037297 86.286 154.55)">
   <path d="m268.38 287.92-86.18 34.21c-7.33 2.91-7.39 7.34-0.12 9.89s19.09 2.22 26.4-0.74l85.82-34.75c14.08 3.16 30 4.81 46.44 5.04 17.35-23.35 29.43-50.84 34.51-80.72-32.54 0.37-66.75 5.63-92.41 15.31-40.12 15.13-45.16 36.99-14.46 51.75z" fill="url(#linear-gradient-0)" opacity=".1" stroke-width="0px"/>
   <path d="m190.98 318.88-0.21-43.07c-0.1-23.67 13.62-45.06 34.93-55.34 27.45-13.24 46.29-41.51 45.83-74.13-0.61-43.61-36.2-79.2-79.81-79.81-45.25-0.63-82.12 35.86-82.12 80.96l0.03 0.2c0 18.27 6.05 35.13 16.26 48.67" fill="none" stroke="#0f9d58" stroke-linecap="round" stroke-linejoin="round" stroke-width="32.9px"/>
   <path d="m228.16 57.63c-10.35-3.88-21.38-5.98-32.7-6.15h-1.4c-25.77 0-50.01 9.93-68.38 28.06-18.71 18.45-29.01 43.08-29.01 69.36 0 0.33 0 0.66 0.03 0.99 0.17 21.03 6.92 41 19.57 57.78 1.32 1.76 2.93 3.18 4.72 4.23 0.2 0.12 0.39 0.23 0.59 0.34-3.39-0.92-6.52-2.93-8.81-5.96-12.64-16.78-19.4-36.74-19.57-57.78-0.02-0.33-0.03-0.67-0.03-0.99 0-26.28 10.3-50.91 29.01-69.36 18.38-18.12 42.62-28.06 68.38-28.06h1.4c12.6 0.18 24.85 2.77 36.2 7.55z" fill="#fff" opacity=".15" stroke-width="0px"/>
   <path d="m287.99 146.12c0.27 18.95-4.92 37.39-14.99 53.34-9.79 15.49-23.67 27.88-40.14 35.83-15.64 7.55-25.7 23.42-25.63 40.46l0.21 43.06c0.04 8.23-5.97 15.08-13.86 16.32 6.57-2.18 11.09-8.33 11.06-15.62l-0.21-45.86c-0.07-17.04 9.99-32.91 25.63-40.46 16.47-7.94 30.35-20.34 40.14-35.83 10.07-15.95 15.26-34.39 14.99-53.35-0.35-25.4-10.51-49.34-28.59-67.43-2.91-2.91-5.99-5.62-9.18-8.11 4.22 3.04 8.23 6.46 11.98 10.21 18.09 18.09 28.24 42.04 28.59 67.44z" opacity=".2" stroke-width="0px"/>
   <path d="m176.92 116.72v25.89h27.31v-25.89h14.84v67.47h-14.84v-29.11h-27.31v29.11h-14.84v-67.47z" fill="#00cc7f" stroke-width="0px"/>
   <path d="m176.92 116.72v25.89h27.31v-25.89h14.84v67.47h-14.84v-29.11h-27.31v29.11h-14.84v-67.47z" fill="#0f9d58" stroke-width="0px"/>
  </g>
 </g>
</svg>
